<?xml version="1.0" encoding="utf-8"?>
<!-- Generator: Adobe Illustrator 23.0.1, SVG Export Plug-In . SVG Version: 6.00 Build 0)  -->
<svg version="1.1" id="Capa_1" xmlns="http://www.w3.org/2000/svg" xmlns:xlink="http://www.w3.org/1999/xlink" x="0px" y="0px"
	 viewBox="0 0 479 174" style="enable-background:new 0 0 479 174;" xml:space="preserve">
<style type="text/css">
	.st0{fill:none;stroke:#FFFFFF;stroke-width:12;}
	.st1{fill:none;stroke:#FFFFFF;stroke-width:12;stroke-linecap:round;}
	.st2{fill:#FFFFFF;}
</style>
<title>Group 15 Copy 2</title>
<desc>Created with Sketch.</desc>
<g id="Page-1">
	<g id="Group-15-Copy-2" transform="translate(6.000000, -6.000000)">
		<g id="Group-14" transform="translate(0.000000, 12.000000)">
			<path id="Rectangle-Copy-8" class="st0" d="M20,0h122c11,0,20,9,20,20v122c0,11-9,20-20,20H20c-11,0-20-9-20-20V20C0,9,9,0,20,0z
				"/>
			<path id="Path-6-Copy-2" class="st1" d="M162,81c-17.8,48-66.8,48-81,0S17.1,33,0,81"/>
		</g>
		<path id="SoundTrafc" class="st2" d="M200.3,61.4c0,2.5,0.5,4.6,1.4,6.3c0.9,1.7,2.1,3.1,3.6,4.2c1.5,1.1,3.2,1.9,5.3,2.4
			c2,0.5,4.1,0.8,6.2,0.8c1.5,0,3-0.1,4.7-0.4s3.2-0.7,4.7-1.4c1.5-0.7,2.7-1.6,3.6-2.9c1-1.2,1.5-2.8,1.5-4.6c0-2-0.6-3.6-1.9-4.9
			c-1.3-1.2-3-2.3-5-3.1c-2.1-0.8-4.4-1.6-7.1-2.2c-2.6-0.6-5.3-1.3-8-2.1c-2.8-0.7-5.5-1.5-8.1-2.5c-2.6-1-5-2.3-7.1-3.9
			c-2.1-1.6-3.8-3.6-5-6c-1.3-2.4-1.9-5.3-1.9-8.7c0-3.8,0.8-7.1,2.4-9.9c1.6-2.8,3.8-5.1,6.4-7s5.6-3.3,8.9-4.2s6.7-1.4,10-1.4
			c3.9,0,7.6,0.4,11.2,1.3c3.6,0.9,6.7,2.3,9.5,4.2s5,4.4,6.6,7.4c1.6,3,2.4,6.7,2.4,11h-15.8c-0.1-2.2-0.6-4.1-1.4-5.5
			c-0.8-1.5-1.9-2.6-3.2-3.4c-1.3-0.8-2.8-1.4-4.5-1.8c-1.7-0.3-3.6-0.5-5.6-0.5c-1.3,0-2.6,0.1-4,0.4s-2.5,0.8-3.6,1.5
			c-1.1,0.7-2,1.6-2.7,2.6c-0.7,1-1,2.4-1,4c0,1.5,0.3,2.6,0.8,3.5s1.6,1.7,3.3,2.5c1.6,0.8,3.9,1.5,6.8,2.3
			c2.9,0.8,6.6,1.7,11.3,2.9c1.4,0.3,3.3,0.8,5.8,1.5s4.9,1.9,7.3,3.5s4.5,3.7,6.3,6.4c1.8,2.7,2.7,6.1,2.7,10.2
			c0,3.4-0.7,6.6-2,9.5s-3.3,5.4-5.9,7.5c-2.6,2.1-5.8,3.8-9.7,4.9c-3.8,1.2-8.3,1.8-13.4,1.8c-4.1,0-8.1-0.5-11.9-1.5
			c-3.8-1-7.2-2.6-10.2-4.7c-2.9-2.1-5.3-4.9-7-8.2c-1.7-3.3-2.6-7.3-2.5-11.9H200.3z M262.6,59.2c0,2.1,0.2,4.2,0.6,6.3
			c0.4,2,1.1,3.9,2.1,5.5s2.3,2.9,4,3.9s3.7,1.5,6.2,1.5s4.6-0.5,6.3-1.5c1.7-1,3.1-2.3,4.1-3.9s1.7-3.5,2.1-5.5
			c0.4-2,0.6-4.1,0.6-6.3c0-2.1-0.2-4.3-0.6-6.3c-0.4-2.1-1.1-3.9-2.1-5.5s-2.4-2.9-4.1-3.9c-1.7-1-3.8-1.5-6.3-1.5
			s-4.6,0.5-6.2,1.5c-1.7,1-3,2.3-4,3.9s-1.7,3.4-2.1,5.5C262.8,54.9,262.6,57,262.6,59.2z M247.8,59.2c0-4.3,0.7-8.2,2-11.7
			c1.3-3.5,3.2-6.5,5.6-8.9c2.4-2.5,5.3-4.4,8.7-5.7c3.4-1.4,7.2-2,11.4-2c4.2,0,8.1,0.7,11.5,2c3.4,1.4,6.4,3.3,8.8,5.7
			c2.4,2.5,4.3,5.4,5.6,8.9c1.3,3.5,2,7.4,2,11.7s-0.7,8.2-2,11.6c-1.3,3.5-3.2,6.4-5.6,8.9c-2.4,2.5-5.4,4.4-8.8,5.7s-7.3,2-11.5,2
			c-4.2,0-8-0.7-11.4-2c-3.4-1.3-6.3-3.2-8.7-5.7c-2.4-2.5-4.3-5.4-5.6-8.9C248.5,67.3,247.8,63.5,247.8,59.2z M357.9,86h-14v-7.5
			h-0.3c-1.9,3.1-4.3,5.4-7.3,6.8s-6,2.1-9.2,2.1c-4,0-7.2-0.5-9.7-1.6s-4.5-2.5-6-4.4c-1.5-1.9-2.5-4.2-3.1-7s-0.9-5.8-0.9-9.1
			V32.2h14.8v30.4c0,4.4,0.7,7.7,2.1,9.9c1.4,2.2,3.8,3.3,7.4,3.3c4,0,6.9-1.2,8.7-3.6s2.7-6.3,2.7-11.8V32.2h14.8V86z M363.5,32.2
			h14v7.5h0.3c1.9-3.1,4.3-5.4,7.3-6.8s6-2.1,9.2-2.1c4,0,7.2,0.5,9.7,1.6c2.5,1.1,4.5,2.6,6,4.5c1.5,1.9,2.5,4.2,3.1,7
			c0.6,2.7,0.9,5.8,0.9,9.1V86h-14.8V55.6c0-4.4-0.7-7.7-2.1-9.9c-1.4-2.2-3.8-3.3-7.4-3.3c-4,0-6.9,1.2-8.7,3.6
			c-1.8,2.4-2.7,6.3-2.7,11.8V86h-14.8V32.2z M457.8,59c0-2.2-0.2-4.4-0.6-6.4c-0.4-2-1.1-3.8-2.1-5.4c-1-1.6-2.3-2.8-3.9-3.8
			s-3.6-1.5-6-1.5c-2.4,0-4.5,0.5-6.1,1.5s-3,2.3-4,3.8s-1.7,3.4-2.2,5.5c-0.5,2-0.7,4.2-0.7,6.4c0,2.1,0.2,4.2,0.7,6.2
			c0.5,2.1,1.3,3.9,2.3,5.6c1.1,1.6,2.4,2.9,4.1,4c1.6,1,3.6,1.5,5.9,1.5c2.4,0,4.5-0.5,6.1-1.5s2.9-2.3,3.9-3.9s1.7-3.5,2.1-5.6
			C457.6,63.3,457.8,61.2,457.8,59z M458,79.1h-0.2c-1.7,2.9-4,5-6.8,6.3c-2.8,1.3-6,1.9-9.5,1.9c-4,0-7.6-0.8-10.6-2.3
			s-5.6-3.7-7.5-6.3s-3.5-5.7-4.5-9.2c-1-3.5-1.5-7.1-1.5-10.8c0-3.6,0.5-7.1,1.5-10.5c1-3.4,2.5-6.3,4.5-8.9s4.5-4.6,7.4-6.2
			c3-1.6,6.4-2.3,10.4-2.3c3.2,0,6.2,0.7,9.1,2c2.9,1.4,5.1,3.3,6.8,6h0.2v-27H472V86h-14V79.1z M205.6,113.5h-22.3V99.7h60.8v13.7
			h-22.3V174h-16.3V113.5z M238.1,120.2h14v10h0.2c0.7-1.7,1.6-3.2,2.8-4.6s2.5-2.6,4.1-3.6c1.5-1,3.2-1.8,4.9-2.3
			c1.7-0.6,3.5-0.8,5.4-0.8c1,0,2,0.2,3.2,0.5V133c-0.7-0.1-1.5-0.3-2.5-0.4s-1.9-0.2-2.8-0.2c-2.7,0-5,0.5-6.9,1.4
			s-3.4,2.1-4.5,3.7c-1.1,1.6-2,3.4-2.4,5.5c-0.5,2.1-0.7,4.3-0.7,6.8V174h-14.8V120.2z M274.4,136.8c0.2-3.5,1.1-6.3,2.6-8.6
			c1.5-2.3,3.5-4.1,5.8-5.5c2.4-1.4,5-2.4,8-3c2.9-0.6,5.9-0.9,8.9-0.9c2.7,0,5.4,0.2,8.2,0.6s5.3,1.1,7.6,2.2
			c2.3,1.1,4.2,2.7,5.6,4.6c1.5,2,2.2,4.6,2.2,7.9v28c0,2.4,0.1,4.7,0.4,7c0.3,2.2,0.8,3.9,1.5,5h-15c-0.3-0.8-0.5-1.7-0.7-2.5
			c-0.2-0.9-0.3-1.8-0.4-2.7c-2.4,2.4-5.1,4.1-8.3,5.1c-3.2,1-6.4,1.5-9.8,1.5c-2.6,0-5-0.3-7.2-0.9s-4.2-1.6-5.8-2.9s-3-3-3.9-5
			c-0.9-2-1.4-4.4-1.4-7.2c0-3.1,0.5-5.6,1.6-7.5c1.1-2,2.5-3.6,4.2-4.7c1.7-1.2,3.6-2.1,5.8-2.7c2.2-0.6,4.4-1.1,6.6-1.4
			c2.2-0.3,4.4-0.6,6.6-0.8c2.1-0.2,4.1-0.5,5.7-0.9s3-1,4-1.8s1.4-2,1.4-3.5c0-1.6-0.3-2.9-0.8-3.8c-0.5-0.9-1.2-1.7-2.1-2.2
			s-1.9-0.9-3-1s-2.4-0.3-3.7-0.3c-2.9,0-5.2,0.6-6.9,1.9s-2.6,3.3-2.9,6.2H274.4z M308.5,147.7c-0.6,0.6-1.4,1-2.3,1.3
			c-0.9,0.3-1.9,0.6-3,0.8c-1.1,0.2-2.2,0.4-3.4,0.5c-1.2,0.1-2.4,0.3-3.5,0.5c-1.1,0.2-2.2,0.5-3.3,0.8s-2,0.8-2.8,1.4
			c-0.8,0.6-1.4,1.3-1.9,2.2c-0.5,0.9-0.7,2-0.7,3.4c0,1.3,0.2,2.4,0.7,3.3c0.5,0.9,1.1,1.6,2,2.1s1.8,0.9,2.9,1.1
			c1.1,0.2,2.3,0.3,3.4,0.3c2.9,0,5.2-0.5,6.8-1.5s2.8-2.1,3.5-3.5s1.2-2.7,1.4-4.1s0.3-2.5,0.3-3.3V147.7z M366,130.1h-16.7V174
			h-14.8v-43.9h-8.8v-9.9h8.8v-4.2c0-4.8,1.5-8.7,4.5-11.8s7.5-4.6,13.5-4.6c1.3,0,2.6,0.1,4,0.2c1.3,0.1,2.6,0.2,3.8,0.3v11
			c-1.8-0.2-3.6-0.3-5.4-0.3c-2,0-3.4,0.5-4.3,1.4s-1.3,2.5-1.3,4.7v3.2H366v-4.2c0-4.8,1.5-8.7,4.5-11.8s7.5-4.6,13.5-4.6
			c1.3,0,2.6,0.1,4,0.2c1.3,0.1,2.6,0.2,3.8,0.3v11c-1.8-0.2-3.6-0.3-5.4-0.3c-2,0-3.4,0.5-4.3,1.4s-1.3,2.5-1.3,4.7v3.2h10.2v9.9
			h-10.2V174H366V130.1z M412.6,111.9h-14.8V99.7h14.8V111.9z M397.8,120.2h14.8V174h-14.8V120.2z M457.3,139.2
			c-1-6.2-4.6-9.3-10.9-9.3c-2.4,0-4.3,0.5-5.9,1.6c-1.6,1.1-2.9,2.5-3.9,4.2c-1,1.7-1.7,3.6-2.1,5.6c-0.4,2-0.6,4.1-0.6,6.1
			c0,1.9,0.2,3.9,0.6,5.9c0.4,2,1.1,3.8,2,5.5c0.9,1.6,2.2,3,3.8,4c1.6,1,3.5,1.6,5.8,1.6c3.5,0,6.3-1,8.2-3s3.1-4.6,3.6-8h14.2
			c-1,7.1-3.7,12.6-8.3,16.3c-4.6,3.7-10.4,5.6-17.6,5.6c-4,0-7.7-0.7-11.1-2c-3.4-1.4-6.2-3.2-8.6-5.7c-2.4-2.4-4.2-5.3-5.5-8.7
			c-1.3-3.4-2-7.1-2-11.1c0-4.2,0.6-8,1.8-11.6c1.2-3.6,3-6.7,5.4-9.3c2.4-2.6,5.2-4.6,8.6-6.1c3.4-1.5,7.3-2.2,11.6-2.2
			c3.2,0,6.3,0.4,9.2,1.2c2.9,0.8,5.6,2.1,7.9,3.8c2.3,1.7,4.2,3.8,5.7,6.3c1.5,2.5,2.3,5.5,2.5,9H457.3z"/>
	</g>
</g>
</svg>
