<?xml version="1.0" encoding="UTF-8"?>
<svg width="479px" height="174px" viewBox="0 0 479 174" version="1.1" xmlns="http://www.w3.org/2000/svg" xmlns:xlink="http://www.w3.org/1999/xlink">
    <!-- Generator: Sketch 53.2 (72643) - https://sketchapp.com -->
    <title>Group 15 Copy 2</title>
    <desc>Created with Sketch.</desc>
    <g id="Page-1" stroke="none" stroke-width="1" fill="none" fill-rule="evenodd">
        <g id="Group-15-Copy-2" transform="translate(6.000000, -6.000000)">
            <g id="Group-14" transform="translate(0.000000, 12.000000)" stroke="#000000" stroke-width="12">
                <rect id="Rectangle-Copy-8" x="0" y="0" width="162" height="162" rx="20"></rect>
                <path d="M0,81 C17.7631579,33 66.7894737,33 81,81 C95.2105263,129 144.947368,129 162,81" id="Path-6-Copy-2" stroke-linecap="round" transform="translate(81.000000, 81.000000) scale(-1, -1) translate(-81.000000, -81.000000) "></path>
            </g>
            <path d="M200.304,61.352 C200.304,63.8480125 200.754662,65.962658 201.656,67.696 C202.557338,69.429342 203.753326,70.833328 205.244,71.908 C206.734674,72.982672 208.485323,73.7799974 210.496,74.3 C212.506677,74.8200026 214.586656,75.08 216.736,75.08 C218.192007,75.08 219.751992,74.9586679 221.416,74.716 C223.080008,74.4733321 224.639993,74.0053368 226.096,73.312 C227.552007,72.6186632 228.765328,71.6653394 229.736,70.452 C230.706672,69.2386606 231.192,67.6960094 231.192,65.824 C231.192,63.8133233 230.550673,62.1840062 229.268,60.936 C227.985327,59.6879938 226.30401,58.6480042 224.224,57.816 C222.14399,56.9839958 219.78668,56.2560031 217.152,55.632 C214.51732,55.0079969 211.848014,54.3146705 209.144,53.552 C206.370653,52.8586632 203.66668,52.0093384 201.032,51.004 C198.39732,49.9986616 196.04001,48.6986746 193.96,47.104 C191.87999,45.5093254 190.198673,43.516012 188.916,41.124 C187.633327,38.731988 186.992,35.8373503 186.992,32.44 C186.992,28.6266476 187.806659,25.316014 189.436,22.508 C191.065341,19.699986 193.19732,17.3600094 195.832,15.488 C198.46668,13.6159906 201.447983,12.2293378 204.776,11.328 C208.104017,10.4266622 211.431983,9.976 214.76,9.976 C218.642686,9.976 222.369315,10.409329 225.94,11.276 C229.510685,12.142671 232.682653,13.546657 235.456,15.488 C238.229347,17.429343 240.430659,19.9079849 242.06,22.924 C243.689341,25.9400151 244.504,29.5973118 244.504,33.896 L228.696,33.896 C228.557333,31.6773222 228.089337,29.8400073 227.292,28.384 C226.494663,26.9279927 225.43734,25.7840042 224.12,24.952 C222.80266,24.1199958 221.294675,23.5306684 219.596,23.184 C217.897325,22.8373316 216.042677,22.664 214.032,22.664 C212.71466,22.664 211.39734,22.8026653 210.08,23.08 C208.76266,23.3573347 207.566672,23.8426632 206.492,24.536 C205.417328,25.2293368 204.533337,26.0959948 203.84,27.136 C203.146663,28.1760052 202.8,29.4933254 202.8,31.088 C202.8,32.5440073 203.077331,33.7226622 203.632,34.624 C204.186669,35.5253378 205.278659,36.3573295 206.908,37.12 C208.537341,37.8826705 210.790652,38.6453295 213.668,39.408 C216.545348,40.1706705 220.306643,41.1413274 224.952,42.32 C226.338674,42.5973347 228.262654,43.0999964 230.724,43.828 C233.185346,44.5560036 235.629321,45.7173254 238.056,47.312 C240.482679,48.9066746 242.579991,51.0386533 244.348,53.708 C246.116009,56.3773467 247,59.7919792 247,63.952 C247,67.3493503 246.34134,70.5039854 245.024,73.416 C243.70666,76.3280146 241.748013,78.8413228 239.148,80.956 C236.547987,83.0706772 233.324019,84.7173274 229.476,85.896 C225.627981,87.0746726 221.173359,87.664 216.112,87.664 C212.021313,87.664 208.052019,87.1613384 204.204,86.156 C200.355981,85.1506616 196.958681,83.5733441 194.012,81.424 C191.065319,79.2746559 188.725342,76.5360166 186.992,73.208 C185.258658,69.8799834 184.426666,65.9280229 184.496,61.352 L200.304,61.352 Z M262.616,59.168 C262.616,61.3173441 262.823998,63.4146564 263.24,65.46 C263.656002,67.5053436 264.366662,69.3426585 265.372,70.972 C266.377338,72.6013415 267.711992,73.9013285 269.376,74.872 C271.040008,75.8426715 273.119988,76.328 275.616,76.328 C278.112013,76.328 280.209325,75.8426715 281.908,74.872 C283.606675,73.9013285 284.958662,72.6013415 285.964,70.972 C286.969338,69.3426585 287.679998,67.5053436 288.096,65.46 C288.512002,63.4146564 288.72,61.3173441 288.72,59.168 C288.72,57.0186559 288.512002,54.9040104 288.096,52.824 C287.679998,50.7439896 286.969338,48.9066746 285.964,47.312 C284.958662,45.7173254 283.606675,44.4173384 281.908,43.412 C280.209325,42.4066616 278.112013,41.904 275.616,41.904 C273.119988,41.904 271.040008,42.4066616 269.376,43.412 C267.711992,44.4173384 266.377338,45.7173254 265.372,47.312 C264.366662,48.9066746 263.656002,50.7439896 263.24,52.824 C262.823998,54.9040104 262.616,57.0186559 262.616,59.168 Z M247.848,59.168 C247.848,54.8693118 248.50666,50.9693508 249.824,47.468 C251.14134,43.9666492 253.013321,40.9853456 255.44,38.524 C257.866679,36.0626544 260.77865,34.1560068 264.176,32.804 C267.57335,31.4519932 271.386646,30.776 275.616,30.776 C279.845355,30.776 283.675983,31.4519932 287.108,32.804 C290.540017,34.1560068 293.469321,36.0626544 295.896,38.524 C298.322679,40.9853456 300.19466,43.9666492 301.512,47.468 C302.82934,50.9693508 303.488,54.8693118 303.488,59.168 C303.488,63.4666882 302.82934,67.349316 301.512,70.816 C300.19466,74.282684 298.322679,77.2466544 295.896,79.708 C293.469321,82.1693456 290.540017,84.0586601 287.108,85.376 C283.675983,86.6933399 279.845355,87.352 275.616,87.352 C271.386646,87.352 267.57335,86.6933399 264.176,85.376 C260.77865,84.0586601 257.866679,82.1693456 255.44,79.708 C253.013321,77.2466544 251.14134,74.282684 249.824,70.816 C248.50666,67.349316 247.848,63.4666882 247.848,59.168 Z M357.896,86 L343.856,86 L343.856,78.512 L343.544,78.512 C341.671991,81.6320156 339.245348,83.8853264 336.264,85.272 C333.282652,86.6586736 330.232016,87.352 327.112,87.352 C323.15998,87.352 319.91868,86.8320052 317.388,85.792 C314.857321,84.7519948 312.864007,83.2786762 311.408,81.372 C309.951993,79.4653238 308.929336,77.1426804 308.34,74.404 C307.750664,71.6653196 307.456,68.6320166 307.456,65.304 L307.456,32.232 L322.224,32.232 L322.224,62.6 C322.224,67.0373555 322.917327,70.3479891 324.304,72.532 C325.690674,74.7160109 328.151983,75.808 331.688,75.808 C335.709354,75.808 338.621325,74.612012 340.424,72.22 C342.226676,69.827988 343.128,65.8933607 343.128,60.416 L343.128,32.232 L357.896,32.232 L357.896,86 Z M363.528,32.232 L377.568,32.232 L377.568,39.72 L377.88,39.72 C379.75201,36.5999844 382.178652,34.3293404 385.16,32.908 C388.141349,31.4866596 391.191985,30.776 394.312,30.776 C398.26402,30.776 401.505321,31.313328 404.036,32.388 C406.56668,33.462672 408.559993,34.9533238 410.016,36.86 C411.472008,38.7666762 412.494664,41.0893196 413.084,43.828 C413.673337,46.5666804 413.968,49.5999834 413.968,52.928 L413.968,86 L399.2,86 L399.2,55.632 C399.2,51.1946445 398.506674,47.8840109 397.12,45.7 C395.733327,43.5159891 393.272018,42.424 389.736,42.424 C385.714647,42.424 382.802676,43.619988 381,46.012 C379.197325,48.404012 378.296,52.3386393 378.296,57.816 L378.296,86 L363.528,86 L363.528,32.232 Z M457.768,58.96 C457.768,56.7413222 457.560002,54.6093436 457.144,52.564 C456.727998,50.5186564 456.017339,48.7160078 455.012,47.156 C454.006662,45.5959922 452.706675,44.3306715 451.112,43.36 C449.517326,42.3893285 447.506679,41.904 445.08,41.904 C442.653322,41.904 440.608009,42.3893285 438.944,43.36 C437.279992,44.3306715 435.945339,45.6133254 434.94,47.208 C433.934662,48.8026746 433.206669,50.6226564 432.756,52.668 C432.305331,54.7133436 432.08,56.8453222 432.08,59.064 C432.08,61.1440104 432.322665,63.2239896 432.808,65.304 C433.293336,67.3840104 434.073328,69.2386585 435.148,70.868 C436.222672,72.4973415 437.574659,73.8146616 439.204,74.82 C440.833342,75.8253384 442.791989,76.328 445.08,76.328 C447.506679,76.328 449.534659,75.8426715 451.164,74.872 C452.793342,73.9013285 454.093329,72.6013415 455.064,70.972 C456.034672,69.3426585 456.727998,67.4880104 457.144,65.408 C457.560002,63.3279896 457.768,61.1786778 457.768,58.96 Z M457.976,79.136 L457.768,79.136 C456.034658,82.0480146 453.764014,84.1453269 450.956,85.428 C448.147986,86.7106731 444.976018,87.352 441.44,87.352 C437.418647,87.352 433.882682,86.5720078 430.832,85.012 C427.781318,83.4519922 425.26801,81.3373467 423.292,78.668 C421.315991,75.9986533 419.825339,72.930684 418.82,69.464 C417.814662,65.997316 417.312,62.3920187 417.312,58.648 C417.312,55.0426486 417.814662,51.5586835 418.82,48.196 C419.825339,44.8333165 421.315991,41.8693462 423.292,39.304 C425.26801,36.7386538 427.746652,34.6760078 430.728,33.116 C433.709349,31.5559922 437.175981,30.776 441.128,30.776 C444.31735,30.776 447.350653,31.4519932 450.228,32.804 C453.105348,34.1560068 455.375992,36.1493202 457.04,38.784 L457.248,38.784 L457.248,11.744 L472.016,11.744 L472.016,86 L457.976,86 L457.976,79.136 Z M205.608,113.472 L183.352,113.472 L183.352,99.744 L244.192,99.744 L244.192,113.472 L221.936,113.472 L221.936,174 L205.608,174 L205.608,113.472 Z M238.092,120.232 L252.132,120.232 L252.132,130.216 L252.34,130.216 C253.033337,128.551992 253.969327,127.00934 255.148,125.588 C256.326673,124.16666 257.678659,122.953338 259.204,121.948 C260.729341,120.942662 262.358658,120.162669 264.092,119.608 C265.825342,119.053331 267.627991,118.776 269.5,118.776 C270.470672,118.776 271.545327,118.949332 272.724,119.296 L272.724,133.024 C272.030663,132.885333 271.198672,132.764001 270.228,132.66 C269.257328,132.555999 268.321338,132.504 267.42,132.504 C264.715986,132.504 262.428009,132.954662 260.556,133.856 C258.683991,134.757338 257.176006,135.987992 256.032,137.548 C254.887994,139.108008 254.073336,140.92799 253.588,143.008 C253.102664,145.08801 252.86,147.341321 252.86,149.768 L252.86,174 L238.092,174 L238.092,120.232 Z M274.424,136.768 C274.632001,133.301316 275.498659,130.424011 277.024,128.136 C278.549341,125.847989 280.490655,124.010674 282.848,122.624 C285.205345,121.237326 287.857319,120.249336 290.804,119.66 C293.750681,119.070664 296.714652,118.776 299.696,118.776 C302.400014,118.776 305.138653,118.966665 307.912,119.348 C310.685347,119.729335 313.215989,120.474661 315.504,121.584 C317.792011,122.693339 319.663993,124.23599 321.12,126.212 C322.576007,128.18801 323.304,130.805317 323.304,134.064 L323.304,162.04 C323.304,164.466679 323.442665,166.789322 323.72,169.008 C323.997335,171.226678 324.482663,172.890661 325.176,174 L310.2,174 C309.922665,173.167996 309.697334,172.318671 309.524,171.452 C309.350666,170.585329 309.229334,169.701338 309.16,168.8 C306.802655,171.226679 304.029349,172.925328 300.84,173.896 C297.650651,174.866672 294.392017,175.352 291.064,175.352 C288.498654,175.352 286.106678,175.040003 283.888,174.416 C281.669322,173.791997 279.728008,172.82134 278.064,171.504 C276.399992,170.18666 275.100005,168.522677 274.164,166.512 C273.227995,164.501323 272.76,162.109347 272.76,159.336 C272.76,156.285318 273.297328,153.77201 274.372,151.796 C275.446672,149.81999 276.833325,148.242673 278.532,147.064 C280.230675,145.885327 282.171989,145.001336 284.356,144.412 C286.540011,143.822664 288.741322,143.354668 290.96,143.008 C293.178678,142.661332 295.362656,142.384001 297.512,142.176 C299.661344,141.967999 301.567992,141.656002 303.232,141.24 C304.896008,140.823998 306.213328,140.217337 307.184,139.42 C308.154672,138.622663 308.605334,137.461341 308.536,135.936 C308.536,134.341325 308.276003,133.076005 307.756,132.14 C307.235997,131.203995 306.542671,130.476003 305.676,129.956 C304.809329,129.435997 303.804006,129.089334 302.66,128.916 C301.515994,128.742666 300.28534,128.656 298.968,128.656 C296.055985,128.656 293.768008,129.279994 292.104,130.528 C290.439992,131.776006 289.469335,133.855985 289.192,136.768 L274.424,136.768 Z M308.536,147.688 C307.911997,148.242669 307.132005,148.675998 306.196,148.988 C305.259995,149.300002 304.254672,149.559999 303.18,149.768 C302.105328,149.976001 300.978673,150.149333 299.8,150.288 C298.621327,150.426667 297.442673,150.599999 296.264,150.808 C295.154661,151.016001 294.062672,151.293332 292.988,151.64 C291.913328,151.986668 290.977337,152.454664 290.18,153.044 C289.382663,153.633336 288.741336,154.378662 288.256,155.28 C287.770664,156.181338 287.528,157.325326 287.528,158.712 C287.528,160.02934 287.770664,161.138662 288.256,162.04 C288.741336,162.941338 289.399996,163.651997 290.232,164.172 C291.064004,164.692003 292.034661,165.055999 293.144,165.264 C294.253339,165.472001 295.397327,165.576 296.576,165.576 C299.488015,165.576 301.741325,165.090672 303.336,164.12 C304.930675,163.149328 306.10933,161.988007 306.872,160.636 C307.63467,159.283993 308.102666,157.914674 308.276,156.528 C308.449334,155.141326 308.536,154.032004 308.536,153.2 L308.536,147.688 Z M365.98,130.112 L349.236,130.112 L349.236,174 L334.468,174 L334.468,130.112 L325.628,130.112 L325.628,120.232 L334.468,120.232 L334.468,116.072 C334.468,111.287976 335.958652,107.370682 338.94,104.32 C341.921348,101.269318 346.42797,99.744 352.46,99.744 C353.77734,99.744 355.09466,99.7959995 356.412,99.9 C357.72934,100.004001 359.011994,100.090666 360.26,100.16 L360.26,111.184 C358.457324,110.975999 356.654676,110.872 354.852,110.872 C352.841323,110.872 351.402671,111.339995 350.536,112.276 C349.669329,113.212005 349.236,114.789322 349.236,117.008 L349.236,120.232 L365.98,120.232 L365.98,116.072 C365.98,111.287976 367.470652,107.370682 370.452,104.32 C373.433348,101.269318 377.93997,99.744 383.972,99.744 C385.28934,99.744 386.60666,99.7959995 387.924,99.9 C389.24134,100.004001 390.523994,100.090666 391.772,100.16 L391.772,111.184 C389.969324,110.975999 388.166676,110.872 386.364,110.872 C384.353323,110.872 382.914671,111.339995 382.048,112.276 C381.181329,113.212005 380.748,114.789322 380.748,117.008 L380.748,120.232 L390.94,120.232 L390.94,130.112 L380.748,130.112 L380.748,174 L365.98,174 L365.98,130.112 Z M412.572,111.912 L397.804,111.912 L397.804,99.744 L412.572,99.744 L412.572,111.912 Z M397.804,120.232 L412.572,120.232 L412.572,174 L397.804,174 L397.804,120.232 Z M457.328,139.16 C456.357328,132.989302 452.717365,129.904 446.408,129.904 C444.050655,129.904 442.074675,130.441328 440.48,131.516 C438.885325,132.590672 437.585338,133.977325 436.58,135.676 C435.574662,137.374675 434.864002,139.246656 434.448,141.292 C434.031998,143.337344 433.824,145.365323 433.824,147.376 C433.824,149.317343 434.031998,151.293323 434.448,153.304 C434.864002,155.314677 435.539995,157.134659 436.476,158.764 C437.412005,160.393341 438.677325,161.727995 440.272,162.768 C441.866675,163.808005 443.807989,164.328 446.096,164.328 C449.632018,164.328 452.353324,163.34001 454.26,161.364 C456.166676,159.38799 457.362664,156.736017 457.848,153.408 L472.096,153.408 C471.125328,160.549369 468.352023,165.991981 463.776,169.736 C459.199977,173.480019 453.341369,175.352 446.2,175.352 C442.178647,175.352 438.486683,174.676007 435.124,173.324 C431.761317,171.971993 428.901345,170.082679 426.544,167.656 C424.186655,165.229321 422.34934,162.334683 421.032,158.972 C419.71466,155.609317 419.056,151.917353 419.056,147.896 C419.056,143.735979 419.662661,139.870685 420.876,136.3 C422.089339,132.729315 423.874655,129.644013 426.232,127.044 C428.589345,124.443987 431.46665,122.416007 434.864,120.96 C438.26135,119.503993 442.143978,118.776 446.512,118.776 C449.701349,118.776 452.769319,119.191996 455.716,120.024 C458.662681,120.856004 461.297322,122.121325 463.62,123.82 C465.942678,125.518675 467.831993,127.633321 469.288,130.164 C470.744007,132.694679 471.575999,135.693316 471.784,139.16 L457.328,139.16 Z" id="SoundTrafc" fill="#000000" fill-rule="nonzero"></path>
        </g>
    </g>
</svg>